PathFileType	4	(X/Y/Z)	C:/Users/beibeiliu/ov580/test_trc/User2\sequence.29_training_dense_left.trc
DataRate	CameraRate	NumFrames	NumMarkers	Units	OrigDataRate	OrigDataStartFrame	OrigNumFrames
120	120	11	19	mm	120	137	365
Frame#	Time	ThumbCMC			ThumbMCP			ThumbIP			ThumbTip			IndexMCP			IndexPIP			IndexTip			MiddleMCP			MiddlePIP			MiddleTip			RingMCP			RingPIP			RingTip			PinkyMCP			PinkyPIP			PinkyTip			BackHand1			BackHand2			BackHand3	
		X0	Y0	Z0	X1	Y1	Z1	X2	Y2	Z2	X3	Y3	Z3	X4	Y4	Z4	X5	Y5	Z5	X6	Y6	Z6	X7	Y7	Z7	X8	Y8	Z8	X9	Y9	Z9	X10	Y10	Z10	X11	Y11	Z11	X12	Y12	Z12	X13	Y13	Z13	X14	Y14	Z14	X15	Y15	Z15	X16	Y16	Z16	X17	Y17	Z17	X18	Y18	Z18	
136	1.13333	-227.387	-33.2935	96.545	-243.18	-19.0242	72.4664	-254.329	-4.35026	47.5043	-261.224	9.15995	25.1512	-187.295	-45.434	24.9263	-178.014	-45.3774	-1.19712	-166.856	-39.5754	-25.94	-155.243	-48.8263	29.2824	-136.853	-27.2527	5.0979	-132.455	12.7355	9.93201	-132.59	-45.8358	49.5438	-114.852	-36.2682	29.357	-96.6802	-12.4779	9.01959	-118.052	-44.361	75.0815	-96.2189	-40.8109	64.5203	-75.2554	-39.2776	45.3558	-166.047	-60.4645	95.5519	-175.086	-70.8235	122.429	-199.426	-61.639	92.5031	
137	1.14167	-228.293	-36.2007	98.2248	-245.21	-21.525	76.865	-251.115	-5.91489	45.771	-258.673	7.73769	25.5706	-190.2	-47.271	29.8276	-184.901	-45.2012	-2.44758	-174.32	-38.6686	-28.5904	-159.964	-51.6637	33.0612	-140.331	-36.2116	1.31512	-124.689	-1.73883	-4.96726	-134.006	-50.189	51.801	-114.546	-41.1282	29.7592	-101.053	-18.5574	5.32497	-120.743	-45.5625	75.8383	-96.7615	-42.1578	62.8006	-80.5064	-42.3884	48.6057	-165.589	-63.4801	95.9147	-176.95	-70.7778	124.742	-202.952	-63.8293	92.3891	
138	1.15	-230.156	-32.7856	100.764	-242.781	-18.184	76.7705	-254.6	-3.61251	42.8496	-261.784	9.61097	25.7826	-191.128	-45.285	26.3334	-182.774	-43.738	-3.3741	-175.207	-36.3563	-31.482	-158.354	-52.8556	29.4265	-142.242	-39.8487	-0.856789	-125.822	-13.1625	-17.0228	-138.117	-49.8795	49.7002	-119.442	-41.4309	25.0791	-102.001	-22.0689	6.76	-122.782	-43.9133	71.688	-97.8059	-41.5198	60.4454	-82.3751	-40.7246	46.0539	-162.502	-62.2995	92.218	-179.322	-68.9341	125.156	-203.533	-60.7578	90.5025	
139	1.15833	-232.877	-33.4926	97.5155	-244.428	-19.642	73.5717	-251.766	-5.37331	44.1011	-258.347	6.71968	27.3643	-193.871	-45.967	25.385	-186.383	-44.052	-4.48709	-175.099	-39.1183	-26.957	-157.341	-55.2046	28.8962	-144.873	-46.7232	2.11056	-128.889	-23.4591	-21.026	-137.101	-50.0498	47.0696	-117.826	-41.2236	22.7694	-106.925	-20.045	1.77068	-125.578	-44.3632	76.4448	-101.263	-41.6072	61.415	-79.5484	-38.2428	43.7832	-166.623	-61.5212	96.3895	-176.367	-70.5484	120.934	-202.188	-61.9888	95.2389	
140	1.16667	-231.484	-34.8063	97.3952	-246.335	-20.6159	75.4204	-254.232	-6.01071	44.4757	-261.714	7.27183	23.1983	-190.35	-46.8783	25.9475	-183.808	-46.5712	-4.44185	-173.907	-41.6379	-28.3678	-162.331	-54.2937	31.122	-143.972	-48.6194	1.0232	-127.775	-25.1064	-24.1965	-139.879	-51.238	45.9702	-120.712	-40.2505	19.6275	-110.36	-16.2717	2.10482	-123.621	-44.821	74.3655	-101.167	-41.6119	59.8782	-84.9061	-38.043	42.3448	-166.373	-61.2738	94.644	-180.344	-69.9056	124.811	-205.333	-63.0033	90.177	
141	1.175	-234.232	-33.8682	97.6286	-244.55	-20.083	74.1648	-257.716	-6.29071	44.7188	-260.319	6.96805	27.1085	-194.368	-44.5616	27.2722	-187.353	-44.9411	-0.648325	-178.386	-39.8019	-31.7445	-161.418	-54.7245	31.848	-146.267	-46.4349	-4.21234	-129.582	-26.8753	-24.7927	-136.547	-51.2007	45.1331	-120.433	-39.3316	23.0854	-110.769	-12.3662	8.63245	-120.977	-45.9786	73.3867	-102.533	-41.8163	60.9016	-80.7554	-37.8479	40.0462	-164.95	-60.0199	90.4795	-177.795	-70.5143	119.954	-202.937	-60.3439	92.4529	
142	1.18333	-235.224	-30.816	99.2593	-243.737	-16.8953	74.1824	-255.206	-2.28539	44.7271	-258.63	11.0119	24.8618	-193.219	-42.6294	27.4193	-184.074	-42.4453	-1.66117	-175.959	-37.7805	-27.4933	-162.73	-50.6347	27.7841	-144.115	-44.878	-0.949047	-124.997	-21.0856	-24.0653	-141.51	-48.5895	45.3184	-121.523	-35.0366	22.6329	-121.013	2.1127	12.9133	-120.41	-43.9743	73.8696	-102.575	-39.2452	57.0845	-80.2499	-34.3006	42.8043	-166.365	-58.3918	91.4185	-175.72	-69.3436	119.731	-202.142	-59.4128	93.1071	
143	1.19167	-232.538	-30.8339	97.7434	-240.243	-15.4817	74.0287	-253.249	-1.44161	45.8872	-257.213	12.0184	24.6639	-191.802	-40.5498	27.1182	-184.835	-41.0933	-0.482809	-176.525	-35.8069	-28.2168	-158.097	-50.5129	28.4272	-141.776	-41.6608	-1.7338	-128.202	-17.9606	-24.9946	-139.829	-46.7199	46.5865	-121.568	-26.2237	22.7314	-125.876	5.58238	25.2527	-123.533	-41.1145	77.1864	-101.656	-37.4179	56.7342	-78.5166	-27.8675	39.4272	-165.885	-58.149	89.5614	-174.564	-67.3956	121.505	-200.127	-57.0854	93.7172	
144	1.2	-232.064	-31.7786	99.1031	-244.091	-17.9576	72.3792	-252.792	-2.5239	44.176	-260.629	11.1492	23.0637	-192.196	-42.7516	27.7922	-187.91	-40.5309	-2.50637	-178.911	-35.7019	-31.7717	-160.166	-51.9246	30.5787	-144.681	-44.4584	0.710344	-130.352	-18.4703	-24.7912	-138.816	-45.7278	41.194	-125.247	-26.9504	24.7197	-132.812	10.1927	38.4137	-126.045	-42.0169	73.6748	-99.4455	-38.5503	56.0056	-82.4719	-31.3022	41.6059	-166.372	-59.2215	90.9479	-176.387	-69.6894	121.603	-201.786	-58.2957	90.4525	
145	1.20833	-231.225	-27.5031	93.5393	-240.022	-12.5369	71.9186	-250.832	2.81149	42.3294	-258.357	16.0703	23.555	-190.175	-38.8333	22.8198	-185.526	-37.9902	-2.12743	-178.272	-33.3033	-28.4973	-158.939	-47.9739	30.1734	-142.91	-41.3169	-0.376716	-128.693	-15.6845	-27.4973	-141.383	-42.8604	43.8282	-123.915	-21.7172	24.1277	-135.424	10.8205	39.6639	-120.181	-43.1091	72.145	-98.751	-38.3586	56.6707	-79.7067	-29.5822	39.3246	-162.606	-54.9176	91.9556	-173.929	-67.1485	120.442	-202.138	-55.0701	91.469	
146	1.21667	-226.114	-26.4857	95.1457	-236.365	-10.2661	71.3709	-254.832	4.07398	46.0721	-256.34	18.0588	25.0179	-187.776	-38.1112	23.2375	-186.988	-36.0642	-2.63026	-175.959	-32.5926	-34.736	-161.834	-47.6379	27.8667	-143.366	-41.24	-2.64481	-128.887	-19.304	-26.8102	-138.589	-44.715	40.4424	-122.461	-22.1981	20.341	-128.775	7.65069	31.2141	-121.433	-40.5054	71.7231	-101.33	-39.5421	53.154	-81.2994	-32.0089	33.7759	-162.809	-53.0119	90.6958	-173.148	-65.2967	117.352	-198.871	-56.9754	90.2376	
